HIERARCHY
ROOT Hips
{
	OFFSET 0.00000 0.00000 0.00000
	CHANNELS 6 Xposition Yposition Zposition Zrotation Yrotation Xrotation 
	JOINT LHipJoint
	{
		OFFSET 0 0 0
		CHANNELS 3 Zrotation Yrotation Xrotation
		JOINT LeftHip
		{
			OFFSET 1.28858 -1.83292 1.03970
			CHANNELS 3 Zrotation Yrotation Xrotation
			JOINT LeftKnee
			{
				OFFSET 2.47846 -6.80952 0.00000
				CHANNELS 3 Zrotation Yrotation Xrotation
				JOINT LeftAnkle
				{
					OFFSET 2.75274 -7.56311 0.00000
					CHANNELS 3 Zrotation Yrotation Xrotation
					JOINT LeftToe
					{
						OFFSET 0.12848 -0.35301 1.68223
						CHANNELS 3 Zrotation Yrotation Xrotation
						End Site
						{
							OFFSET 0.00000 -0.00000 0.87311
						}
					}
				}
			}
		}
	}
	JOINT RHipJoint
	{
		OFFSET 0 0 0
		CHANNELS 3 Zrotation Yrotation Xrotation
		JOINT RightHip
		{
			OFFSET -1.31183 -1.83292 1.03970
			CHANNELS 3 Zrotation Yrotation Xrotation
			JOINT RightKnee
			{
				OFFSET -2.44740 -6.72417 0.00000
				CHANNELS 3 Zrotation Yrotation Xrotation
				JOINT RightAnkle
				{
					OFFSET -2.67343 -7.34519 0.00000
					CHANNELS 3 Zrotation Yrotation Xrotation
					JOINT RightToe
					{
						OFFSET -0.16914 -0.46471 1.77626
						CHANNELS 3 Zrotation Yrotation Xrotation
						End Site
						{
							OFFSET -0.00000 -0.00000 0.92777
						}
					}
				}
			}
		}
	}
	JOINT lowerback
	{
		OFFSET 0 0 0
		CHANNELS 3 Zrotation Yrotation Xrotation
		JOINT Chest
		{
			OFFSET 0.01249 2.14252 0.03842
			CHANNELS 3 Zrotation Yrotation Xrotation
			JOINT Chest2
			{
				OFFSET -0.02957 2.14199 -0.03751
				CHANNELS 3 Zrotation Yrotation Xrotation
				JOINT lowerneck
				{
					OFFSET 0 0 0
					CHANNELS 3 Zrotation Yrotation Xrotation
					JOINT Neck
					{
						OFFSET -0.01678 1.65709 -0.05476
						CHANNELS 3 Zrotation Yrotation Xrotation
						JOINT Head
						{
							OFFSET 0.07912 1.58331 -0.11843
							CHANNELS 3 Zrotation Yrotation Xrotation
							End Site
							{
								OFFSET 0.03298 1.73940 -0.04271
							}
						}
					}
				}
				JOINT LeftCollar
				{
					OFFSET 0 0 0
					CHANNELS 3 Zrotation Yrotation Xrotation
					JOINT LeftShoulder
					{
						OFFSET 3.39556 1.16496 0.08673
CHANNELS 3 Zrotation Xrotation Yrotation
						JOINT LeftElbow
						{
OFFSET 0 -5.239100 -0.000000
CHANNELS 3 Zrotation Xrotation Yrotation
							JOINT LeftWrist
							{
OFFSET 0 -3.314670 0.000000
CHANNELS 3 Zrotation Xrotation Yrotation
								JOINT lhand
								{
									OFFSET 0 0 0
CHANNELS 3 Zrotation Xrotation Yrotation
									JOINT LFingers
									{
OFFSET 0 -0.965900 0.000000
CHANNELS 3 Zrotation Xrotation Yrotation
										End Site
										{
OFFSET 0 -0.778730 0.000000
										}
									}
								}
								JOINT LThumb
								{
OFFSET 0 0.000000 0.000000
CHANNELS 3 Zrotation Xrotation Yrotation
									End Site
									{
OFFSET 0 -0.790620 0.790620
									}
								}
							}
						}
					}
				}
				JOINT RightCollar
				{
					OFFSET 0 0 0
					CHANNELS 3 Zrotation Yrotation Xrotation
					JOINT RightShoulder
					{
						OFFSET -3.27193 1.31331 0.33940
CHANNELS 3 Zrotation Xrotation Yrotation
						JOINT RightElbow
						{
OFFSET 0 -5.302520 0.000000
CHANNELS 3 Zrotation Xrotation Yrotation
							JOINT RightWrist
							{
OFFSET 0 -3.678750 0.000000
CHANNELS 3 Zrotation Xrotation Yrotation
								JOINT rhand
								{
									OFFSET 0 0 0
CHANNELS 3 Zrotation Xrotation Yrotation
									JOINT RFingers
									{
OFFSET 0 -0.594810 0.000000
CHANNELS 3 Zrotation Xrotation Yrotation
										End Site
										{
OFFSET 0 -0.479550 0.000000
										}
									}
								}
								JOINT RThumb
								{
OFFSET 0 0.000000 0.000000
CHANNELS 3 Zrotation Xrotation Yrotation
									End Site
									{
OFFSET 0 -0.486870 0.486870
									}
								}
							}
						}
					}
				}
			}
		}
	}
}
MOTION
Frames: 5
Frame Time: 0.008333333333333333
5.012100 18.283700 -16.382500 -4.798800 -8.426800 3.863000 0.000000 0.000000 0.000000 -11.607300 -3.893900 -3.682200 0.012400 0.718700 1.975200 0.101400 4.183800 -8.987000 2.715800 10.220200 29.692600 0.000000 0.000000 0.000000 19.464600 -2.862300 -4.095200 -2.942000 -10.600500 30.944100 -0.367300 -2.150100 -12.438500 -2.169800 -9.211200 26.458100 -1.310500 2.408300 0.152500 -3.935000 3.287700 2.053500 -3.254000 1.657400 2.183800 -0.384100 4.032400 6.292100 -2.484400 5.091800 -13.044200 -1.011300 2.676800 -4.893200 -0.000000 -0.000000 0.000000 14.407500 -1.560400 -30.299800 12.837700 -21.049000 2.394700 13.634100 -14.109600 15.779100 0.000000 0.000000 0.000000 -7.125000 0.000000 0.000000 -9.422200 13.922300 -6.975200 -0.000000 -0.000000 0.000000 -4.281300 10.673900 21.897700 -18.900300 -29.294600 -4.982000 2.225000 1.631400 48.510100 0.000000 0.000000 0.000000 7.125000 0.000000 -0.000000 62.693200 68.820200 -41.212600
5.092822 18.307122 -16.308908 -4.907790 -9.655250 3.811949 0.000000 0.000000 0.000000 -12.105566 -5.602808 -1.688926 0.001499 0.241070 0.662314 0.192679 5.554286 -12.142413 3.068244 10.804468 31.623535 0.000000 0.000000 0.000000 18.578939 -2.419272 -5.814129 -3.489836 -11.446305 33.803187 -0.143279 -7.681116 -13.590352 -0.075372 -1.701761 4.684049 -1.239685 2.816899 0.288851 -4.284468 3.840742 2.251350 -3.646064 1.940771 2.369113 -0.780903 4.140456 6.500227 -1.963434 5.256025 -13.708816 -0.813969 2.747141 -5.158141 0.000000 0.000000 0.000000 14.908828 -1.542069 -30.631979 13.075925 -21.398325 2.480919 14.722938 -15.437834 17.263662 0.000000 0.000000 0.000000 -7.125000 0.000000 0.000000 -8.716136 12.320067 -6.735377 0.000000 0.000000 0.000000 -4.347251 10.247507 22.370016 -19.142644 -29.595307 -5.101185 2.917019 1.166420 48.253787 0.000000 0.000000 0.000000 7.125000 0.000000 0.000000 62.642824 68.469851 -40.748556
5.118742 18.298415 -16.336396 -5.178978 -9.549927 4.861343 0.000000 0.000000 0.000000 -11.563770 -4.576200 -3.525825 0.002748 0.338202 0.929220 0.139058 5.053112 -10.670686 3.066193 10.801406 31.613050 0.000000 0.000000 0.000000 18.686978 -2.081451 -9.180084 -4.144462 -12.347738 36.977050 -0.005479 -8.363359 -12.021402 -0.117019 -2.203793 6.069166 -1.899559 2.739031 0.440803 -4.336058 3.724502 2.058955 -3.345868 1.868083 2.039663 -0.990245 4.203399 6.421086 -1.757168 5.345410 -14.205811 -0.728955 2.790371 -5.310453 0.000000 0.000000 0.000000 15.234541 -2.048254 -30.290643 13.033946 -21.336921 2.465631 14.648335 -15.167751 17.270204 0.000000 0.000000 0.000000 -7.125000 0.000000 0.000000 -8.765196 12.320969 -6.774429 0.000000 0.000000 0.000000 -4.618036 9.880703 23.122331 -19.602982 -30.160900 -5.330551 3.202904 0.964247 48.174252 0.000000 0.000000 0.000000 7.125000 0.000000 0.000000 62.684901 68.338000 -40.623669
5.160139 18.295431 -16.339872 -5.303758 -9.788280 5.442834 0.000000 0.000000 0.000000 -11.490714 -4.633667 -3.980715 0.001497 0.246871 0.678196 0.137185 5.226799 -10.808692 3.119211 10.885611 31.895022 0.000000 0.000000 0.000000 18.389709 -1.805388 -11.907569 -4.810993 -13.166343 39.996690 0.081627 -8.595421 -10.521711 -0.116027 -2.195387 6.046059 -2.383810 2.770383 0.665978 -4.482842 3.755024 2.020457 -3.240024 1.875591 1.854346 -1.122599 4.242910 6.542655 -1.693209 5.388713 -14.815262 -0.704306 2.817029 -5.526565 0.000000 0.000000 0.000000 15.644429 -2.416445 -30.167980 13.043557 -21.350973 2.469113 14.863065 -15.423217 17.636686 0.000000 0.000000 0.000000 -7.125000 0.000000 0.000000 -8.631293 11.927970 -6.739739 0.000000 0.000000 0.000000 -4.887587 9.490472 23.977158 -20.061367 -30.716135 -5.562718 3.363126 0.904848 48.015221 0.000000 0.000000 0.000000 7.125000 0.000000 0.000000 62.460001 68.208848 -40.281359
5.209793 18.295600 -16.330237 -5.335651 -10.255255 5.601027 0.000000 0.000000 0.000000 -11.693286 -5.117589 -3.507708 0.000004 0.040044 0.109983 0.160167 5.730747 -11.758944 3.175636 10.974096 32.192498 0.000000 0.000000 0.000000 17.893356 -1.631317 -14.005499 -5.465690 -13.889524 42.797060 0.127313 -8.531425 -9.226500 -0.062749 -1.615395 4.443915 -2.750549 2.882724 1.048500 -4.682930 3.887737 2.097162 -3.260270 1.937476 1.714917 -1.159185 4.280060 6.862257 -1.793713 5.411672 -15.504958 -0.751373 2.840497 -5.795429 0.000000 0.000000 0.000000 16.083695 -2.724022 -30.089408 13.037682 -21.342452 2.466966 15.057881 -15.708107 17.791350 0.000000 0.000000 0.000000 -7.125000 0.000000 0.000000 -8.506734 11.751138 -6.671702 0.000000 0.000000 0.000000 -5.128888 9.116060 24.937541 -20.552767 -31.302533 -5.815809 3.216363 1.154059 47.809950 0.000000 0.000000 0.000000 7.125000 0.000000 0.000000 61.902872 68.156508 -39.760382
